<svg width="492" height="154" viewBox="0 0 492 154" fill="none" xmlns="http://www.w3.org/2000/svg">
<mask id="path-1-inside-1_2_7" fill="white">
<path fill-rule="evenodd" clip-rule="evenodd" d="M325.475 1.04C325.095 1.656 324.707 10.111 324.614 19.83C324.414 40.658 322.747 56.897 319.853 66.224C316.602 76.699 315.595 76.126 340.615 78.052C357.463 79.348 358.884 79.06 361.612 73.784C363.921 69.318 362.932 60.755 358.974 50.935C354.229 39.164 347.333 34.51 343.44 40.451C341.267 43.768 342.396 46.721 346.492 48.432C350.738 50.206 352.071 52.734 352.31 59.462C352.468 63.923 352.089 65.27 350.076 67.416C345.488 72.306 338.865 70.071 336.068 62.689C334.604 58.825 334.534 35.35 335.956 25C337.493 13.806 339.453 9.83699 344 8.71099C348.582 7.57499 349.417 6.64799 348.09 4.16799C346.968 2.07199 345.591 1.75099 332.334 0.500994C328.273 0.117994 325.931 0.301995 325.475 1.04ZM213.75 12.9C209.488 13.285 205.527 14.073 204.949 14.651C204.213 15.387 204.212 17.026 204.947 20.102C207.488 30.739 208.904 50.363 207.929 61.431C207.174 70.001 207.24 72.544 208.233 73.206C208.93 73.67 215.95 73.926 223.833 73.775C240.919 73.447 241 73.395 241 62.743C241 53.31 240.142 52 233.965 52C228.428 52 227.883 52.939 230.493 57.986C234.167 65.091 226.224 68.363 220.561 62.077C219.267 60.641 218.489 58.026 218.223 54.213C217.887 49.416 218.209 47.939 220.231 45C222.535 41.651 222.88 41.508 228.236 41.688C234.901 41.912 235.57 40.988 232.958 35.155C230.778 30.285 228.288 29.792 222.021 32.989C218.487 34.792 217.975 34.832 216.561 33.418C214.491 31.348 214.598 29.172 216.96 25.299C218.834 22.224 223.537 19 226.147 19C226.832 19 229.121 20.198 231.234 21.662C235.714 24.767 237.577 23.904 236.544 19.203C235.129 12.758 230.254 11.41 213.75 12.9ZM246.936 14.577C245.914 15.808 245.867 17.072 246.721 20.327C248.043 25.367 247.385 58.207 245.819 65.342C244.449 71.586 245.567 72.725 253.5 73.166C259.027 73.474 259.524 73.328 259.811 71.318C259.982 70.117 259.419 67.777 258.561 66.117C256.114 61.386 256.504 52.688 259.309 49.428C263.829 44.173 268.973 49.735 270.472 61.5C271.82 72.08 273.052 74 278.49 74C285.322 74 286.323 72.446 283.123 66.807C282.091 64.988 280.714 61.25 280.065 58.5C279.415 55.75 277.785 51.822 276.442 49.771C273.142 44.733 273.353 43.043 277.74 39.36C281.142 36.503 281.474 35.782 281.414 31.36C281.306 23.283 279.853 15.574 278.189 14.25C277.099 13.383 272.276 13 262.431 13C250.732 13 248.015 13.277 246.936 14.577ZM187.691 14.7C183.972 15.288 183.476 17.013 185.4 22.66C186.28 25.243 187 29.019 187 31.051V34.746L181.75 35.427C170.984 36.823 171.603 37.031 170.566 31.664C169.932 28.378 169.997 25.493 170.769 22.664C171.75 19.067 171.673 18.321 170.202 17.187C168.417 15.811 160.321 16.375 158.64 17.992C158.162 18.452 158.481 20.974 159.355 23.66C161.411 29.978 163.312 64.719 161.936 70.814C161.4 73.187 161.221 75.549 161.54 76.064C162.408 77.47 171.358 77.19 173.405 75.693C175.092 74.46 175.101 74.081 173.574 68.943C171.828 63.069 172.263 55.663 174.511 53C175.208 52.175 176.095 50.009 176.482 48.186C177.885 41.588 185.477 41.989 188.146 48.802C189.237 51.587 189.45 69.463 188.413 71.142C186.422 74.363 195.632 76.452 199.465 73.649C201.093 72.459 201.183 71.775 200.224 67.899C198.811 62.183 196.823 38.383 196.642 25L196.5 14.5L193.5 14.378C191.85 14.311 189.236 14.456 187.691 14.7ZM45.5 17.929C37.307 19.906 35.144 24.478 36.937 36.032C38.438 45.704 38.342 55.268 36.75 54.796C36.063 54.591 33.813 51.066 31.75 46.962C25.612 34.746 20.901 27.017 18.958 25.978C14.753 23.727 1.44997 25.663 0.28697 28.695C-0.0450299 29.559 1.06997 32.793 2.76297 35.883C5.25297 40.424 6.06297 43.511 6.99597 52C9.22797 72.322 12.041 90.545 13.596 94.752C15.482 99.857 17.994 100.802 24.791 98.963C29.705 97.634 32 96.343 32 94.908C32 94.442 29.4 91.46 26.223 88.281C21.54 83.596 20.115 81.362 18.705 76.5C15.428 65.204 13.014 53.5 13.007 48.872C12.999 43.351 14.876 41.087 17.253 43.754C19.441 46.209 24.454 56.531 26.432 62.653C28.086 67.773 34.802 78.359 37.887 80.708C40.05 82.355 44.187 82.315 46.499 80.625C48.204 79.377 48.272 78.75 47.226 73.875C46.592 70.919 45.768 63.1 45.395 56.5C44.282 36.835 44.32 35.5 45.987 35.5C48.16 35.5 49.477 38.877 54.6 57.596C59.286 74.716 59.304 74.903 57.427 86.645C56.84 90.321 57.011 90.869 58.94 91.481C62.229 92.525 70.802 90.121 72.516 87.674C73.332 86.509 74 84.134 74 82.397C74 78.7 68.538 63.115 62.996 51C60.41 45.347 58.371 38.649 56.909 31C55.699 24.675 54.564 18.938 54.386 18.25C54.037 16.902 50.311 16.768 45.5 17.929ZM137.767 18.566C137.456 18.877 132.871 19.542 127.579 20.042C122.287 20.543 117.086 21.419 116.022 21.988C112.216 24.025 112.181 36 115.981 36C117.005 36 118.713 34.458 119.882 32.476C125.887 22.297 129.819 30.009 133.113 58.431C134.136 67.251 134.068 68.91 132.506 73.254C130.099 79.947 130.906 80.552 140.709 79.409C147.7 78.593 148.533 78.269 148.819 76.252C148.995 75.015 148.261 72.765 147.187 71.252C144.359 67.263 139.229 39.214 139.76 30.641C140.141 24.476 143.502 23.478 148.653 28C153.474 32.233 154.341 31.901 153.777 26.033C153.102 19.004 151.947 18 144.544 18C141.128 18 138.079 18.255 137.767 18.566ZM270.113 22.113C273.65 25.65 272.174 30.528 265.827 36.28C259.17 42.313 257.596 42.134 257.2 35.299C256.564 24.328 264.363 16.363 270.113 22.113ZM378.2 22.2C377.54 22.86 376.994 24.998 376.987 26.95C376.979 28.903 375.592 34.325 373.903 39C364.866 64.017 363.29 72.114 366.551 76.77C368.816 80.003 370.496 80.651 381.454 82.518C395.698 84.944 399.981 83.805 403.706 76.602C404.931 74.234 405.076 71.377 404.495 61.099C404.103 54.17 403.87 43.474 403.977 37.331C404.208 24.172 404.838 24.914 391.441 22.57C380.681 20.688 379.738 20.662 378.2 22.2ZM85.717 25.438C76.072 26.923 74.432 28.284 75.896 33.587C76.586 36.084 76.738 44.302 76.329 56.976C75.795 73.525 75.935 76.974 77.247 79.51C80.858 86.494 83.478 87.187 98.472 85.123C107.634 83.862 113.135 81.486 115.013 77.976C116.615 74.982 116.08 66.807 114 62.5C112.937 60.3 112.048 57.825 112.024 57C112 56.175 110.887 53.152 109.551 50.282C108.215 47.412 105.954 40.679 104.528 35.321C103.102 29.962 101.387 25.23 100.718 24.804C99.137 23.8 95.298 23.962 85.717 25.438ZM418.227 28.173C417.512 28.888 416.993 32.131 416.982 35.95C416.966 41.874 415.934 49.938 413.119 66.147C412.58 69.252 410.982 74.075 409.569 76.863C405.87 84.163 406.123 85.694 411.25 87.032C413.587 87.643 417.719 88.785 420.432 89.571C423.144 90.357 428.146 91 431.547 91C439.26 91 441.712 89.265 445.931 80.822C448.599 75.483 449 73.623 448.996 66.59C448.991 55.935 446.724 42.34 444.092 37.18C441.858 32.8 439.025 30.849 432.5 29.196C424.906 27.272 419.514 26.886 418.227 28.173ZM393.518 32.387C396.102 36.331 396.574 50.118 394.46 59.902C392.376 69.549 389.41 74 385.066 74C381.31 74 379.168 71.307 377.826 64.897C376.857 60.269 377.004 58.101 378.856 49.684C381.191 39.076 382.808 35.189 386.199 32.029C389.083 29.342 391.604 29.465 393.518 32.387ZM95.015 36.021C97.843 39.992 100.654 48.133 101.945 56.089C103.998 68.746 102.937 73.955 97.876 76.051C93.864 77.713 90.904 75.546 87.398 68.382C84.832 63.136 84.609 61.738 84.557 50.564C84.51 40.58 84.813 37.959 86.273 35.72C88.693 32.008 92.245 32.131 95.015 36.021ZM461.729 36.604C461.328 37.005 461 39.239 461 41.567C461 53.782 456.134 76.991 450.902 89.734C449.701 92.659 449.761 93.108 451.537 94.44C454.185 96.426 474.935 101.224 479.138 100.822C482.202 100.529 482.644 100.057 484.125 95.5C485.019 92.75 486.048 88.834 486.411 86.797C486.988 83.57 486.75 82.882 484.559 81.447C483.177 80.541 480.573 79.732 478.773 79.65C475.309 79.491 474.901 80.57 476.505 85.658C476.979 87.163 476.552 88.448 475.092 89.908C472.414 92.586 471.798 92.542 468.077 89.411C465.395 87.155 465 86.179 465 81.812C465 70.524 472.735 63.624 479.824 68.589C483.444 71.125 485.357 69.699 484.719 64.943C483.862 58.553 482.588 57.664 475.355 58.405C469.755 58.978 469.086 58.848 468.522 57.07C467.085 52.54 473.885 46 480.033 46C481.299 46 483.732 47.557 485.657 49.597C489.722 53.908 492 53.565 492 48.642C492 43.395 489.513 41.338 480.5 39.131C470.592 36.706 462.691 35.642 461.729 36.604ZM437.907 43.922C440.303 48.277 440.323 48.522 439.234 60.098C438.083 72.328 436.896 75.906 432.684 79.841C429.617 82.706 427.367 82.38 424.606 78.671C422.753 76.181 422.513 74.561 422.611 65.171C422.725 54.296 424.319 48.022 428.647 41.416C431.229 37.476 434.909 38.472 437.907 43.922ZM83.488 100.02C83.141 100.58 83.4 102.683 84.064 104.693C85.283 108.387 85.177 111.399 83.014 134.5C81.824 147.205 82.507 151.091 86.097 152.051C89.648 153 95 152.021 95 150.421C95 149.678 93.65 146.941 92 144.339C89.11 139.782 89.001 139.185 89.014 128.054C89.029 115.392 89.562 112 91.536 112C93.03 112 95.535 119.24 96.494 126.333C97.317 132.418 99.565 138.862 101.681 141.2C103.264 142.949 108.936 143.756 109.064 142.25C109.099 141.838 109.248 139.475 109.396 137C109.757 130.955 112.745 111.921 113.443 111.223C115.387 109.28 116.921 118.033 117.074 131.935C117.165 140.286 116.799 143.621 115.486 146.388C113.093 151.431 114.001 153 119.314 153C126.068 153 127.442 150.868 126.547 141.778C126.153 137.778 124.939 130.236 123.849 125.019C122.549 118.791 121.977 112.778 122.184 107.516L122.5 99.5L117.803 99.197C114.171 98.963 112.652 99.348 111.108 100.892C109.099 102.901 108.782 104.155 107.306 115.923C106.34 123.623 104.546 124.832 103.013 118.815C99.88 106.509 97.828 100.979 96.044 100.024C93.568 98.698 84.306 98.695 83.488 100.02ZM237.5 109.9C234.773 110.502 234.525 110.89 234.777 114.154C234.93 116.129 234.367 121.686 233.527 126.503C230.901 141.567 231.956 150.618 236.545 152.379C237.435 152.72 242.347 153 247.459 153C258.346 153 259.358 152.368 257.922 146.466C257.391 144.285 256.955 139.489 256.953 135.809C256.949 129.92 256.7 129.04 254.875 128.46C251.691 127.45 244.259 128.883 243.585 130.638C242.721 132.889 243.881 134.173 246.132 133.458C249.169 132.494 251 134.755 251 139.467C251 146.928 245.779 149.272 241.61 143.682C240.003 141.527 239.426 139.051 239.158 133.146C238.718 123.456 240.258 117.295 243.487 115.824C247.359 114.06 249.207 115.418 248.828 119.749C248.547 122.968 248.81 123.544 250.689 123.811C251.892 123.983 253.768 123.232 254.856 122.144C256.663 120.337 256.728 119.747 255.604 115.339C254.446 110.801 254.138 110.471 250.436 109.814C245.715 108.976 241.555 109.003 237.5 109.9ZM266.15 109.737L261.801 110.125L262.454 113.607C263.91 121.368 264.607 135.967 263.881 143.5C263.456 147.9 263.461 151.853 263.89 152.286C264.32 152.718 269.583 152.943 275.586 152.786L286.5 152.5V145.572C286.5 138.731 286.462 138.634 283.524 137.848C279.679 136.82 278.297 138.161 279.8 141.461C281.271 144.69 280.368 147.004 277.643 146.985C271.842 146.943 269.152 139.474 272.563 132.878C273.975 130.148 274.53 129.886 278.313 130.162C281.901 130.424 282.543 130.172 282.797 128.403C282.961 127.268 282.268 125.317 281.257 124.068C279.475 121.868 279.301 121.847 275.603 123.393C273.504 124.269 271.385 124.738 270.894 124.434C269.079 123.313 270.059 118.85 272.646 116.452C275.856 113.477 277.927 113.368 281.273 116C284.623 118.635 285 118.54 285 115.057C285 109.538 281.013 108.412 266.15 109.737ZM293.466 109.765C292.887 110.176 292.445 114.248 292.463 119C292.48 123.675 292.093 132.774 291.602 139.22L290.71 150.939L293.42 151.97C296.631 153.19 298.071 153.242 299.72 152.194C300.633 151.614 300.318 150.191 298.47 146.54C296.378 142.407 296.002 140.272 296.015 132.581C296.033 122.368 297.102 119.273 299.519 122.441C300.334 123.509 301 125.599 301 127.086C301 131.964 304.937 142.896 307.113 144.061C310.578 145.915 311.559 144.518 312.871 135.857C314.743 123.502 315.079 122 315.972 122C317.454 122 318.17 125.393 318.722 135.041C319.164 142.777 318.951 145.194 317.593 147.82C316.672 149.601 316.188 151.496 316.518 152.029C317.367 153.403 323.363 153.237 324.8 151.8C326.564 150.036 326.261 141.874 323.998 130.222C322.598 123.01 322.252 118.833 322.837 116.222C324.04 110.853 323.439 110 318.452 110C313.108 110 312.17 111.37 311.326 120.417C310.295 131.45 308.285 131.858 305.996 121.5C304.211 113.425 303.411 112.07 299.452 110.415C295.609 108.81 294.917 108.735 293.466 109.765ZM334.15 109.737L329.801 110.125L330.454 113.607C331.91 121.368 332.607 135.967 331.881 143.5C331.456 147.9 331.461 151.853 331.89 152.286C332.32 152.718 337.583 152.943 343.586 152.786L354.5 152.5V145.572C354.5 138.731 354.462 138.634 351.524 137.848C347.679 136.82 346.297 138.161 347.8 141.461C349.271 144.69 348.368 147.004 345.643 146.985C339.842 146.943 337.152 139.474 340.563 132.878C341.975 130.148 342.53 129.886 346.313 130.162C349.901 130.424 350.543 130.172 350.797 128.403C350.961 127.268 350.268 125.317 349.257 124.068C347.475 121.868 347.301 121.847 343.603 123.393C341.504 124.269 339.385 124.738 338.894 124.434C337.079 123.313 338.059 118.85 340.646 116.452C343.856 113.477 345.927 113.368 349.273 116C352.623 118.635 353 118.54 353 115.057C353 109.538 349.013 108.412 334.15 109.737ZM398.71 109.762C390.361 110.063 389.872 110.206 388.96 112.605C387.633 116.095 387.757 120 389.195 120C389.853 120 391.659 118.785 393.209 117.3C395.792 114.825 396.162 114.733 397.626 116.198C398.862 117.434 399.343 120.723 399.748 130.71C400.191 141.612 400.003 144.191 398.546 147.262C397.597 149.263 397.112 151.372 397.469 151.95C398.434 153.51 408.951 153.291 409.563 151.697C409.838 150.981 409.386 148.774 408.558 146.794C407.007 143.08 406.126 118.223 407.47 116.049C408.587 114.241 411.283 114.897 414.195 117.687L417 120.374L416.985 116.437C416.976 114.272 416.639 112.006 416.235 111.402C415.25 109.93 409.347 109.378 398.71 109.762ZM131.011 111.487C130.332 112.305 130.061 113.717 130.409 114.623C130.996 116.153 131.174 116.152 132.877 114.611C134.49 113.152 134.863 113.13 135.941 114.429C137.368 116.148 136.06 126.744 133.54 133.887C131.219 140.464 130.387 150.998 132.102 152.084C134.095 153.346 143 153.223 143 151.933C143 151.347 141.795 149.286 140.321 147.355C138.298 144.702 137.625 142.644 137.571 138.942C137.51 134.731 137.943 133.598 140.644 130.896C147.298 124.239 153.991 128.555 153.989 139.5C153.988 142.875 153.334 146.753 152.494 148.364C150.271 152.627 150.55 153 155.965 153C162.877 153 163.443 151.642 161.459 139.8C159.75 129.595 155.331 113.223 153.754 111.25C152.215 109.324 132.636 109.529 131.011 111.487ZM166.435 112.75C166.803 114.262 167.351 121.575 167.653 129C168.089 139.698 167.882 143.42 166.656 146.933C165.804 149.371 165.335 151.733 165.613 152.183C166.289 153.277 172.139 153.198 173.921 152.07C175.123 151.309 175.056 150.735 173.492 148.347C172.243 146.441 171.497 143.024 171.197 137.834C170.702 129.292 171.702 120.284 172.996 121.629C173.456 122.108 175.263 127.44 177.012 133.477C181.881 150.29 183.64 153 189.683 153H192.203L191.482 145.825C190.407 135.12 190.622 122.063 191.954 117.145C192.603 114.75 192.893 112.163 192.598 111.395C192.022 109.893 185.477 109.419 184.613 110.817C184.335 111.267 184.802 113.629 185.651 116.067C187.161 120.405 187.837 134.497 186.594 135.739C185.502 136.832 183.79 134.297 182.942 130.33C180.961 121.058 178.003 112.476 176.379 111.288C175.411 110.58 172.626 110 170.192 110C165.869 110 165.782 110.064 166.435 112.75ZM197.011 111.487C196.332 112.305 196.061 113.717 196.409 114.623C196.996 116.153 197.174 116.152 198.877 114.611C200.49 113.152 200.863 113.13 201.941 114.429C203.368 116.148 202.06 126.744 199.54 133.887C197.219 140.464 196.387 150.998 198.102 152.084C200.095 153.346 209 153.223 209 151.933C209 151.347 207.795 149.286 206.321 147.355C204.298 144.702 203.625 142.644 203.571 138.942C203.51 134.731 203.943 133.598 206.644 130.896C213.298 124.239 219.991 128.555 219.989 139.5C219.988 142.875 219.334 146.753 218.494 148.364C216.271 152.627 216.55 153 221.965 153C228.877 153 229.443 151.642 227.459 139.8C225.75 129.595 221.331 113.223 219.754 111.25C218.215 109.324 198.636 109.529 197.011 111.487ZM359.435 112.75C359.803 114.262 360.351 121.575 360.653 129C361.089 139.698 360.882 143.42 359.656 146.933C358.804 149.371 358.335 151.733 358.613 152.183C359.289 153.277 365.139 153.198 366.921 152.07C368.123 151.309 368.056 150.735 366.492 148.347C365.243 146.441 364.497 143.024 364.197 137.834C363.702 129.292 364.702 120.284 365.996 121.629C366.456 122.108 368.263 127.44 370.012 133.477C374.881 150.29 376.64 153 382.683 153H385.203L384.482 145.825C383.407 135.12 383.622 122.063 384.954 117.145C385.603 114.75 385.893 112.163 385.598 111.395C385.022 109.893 378.477 109.419 377.613 110.817C377.335 111.267 377.802 113.629 378.651 116.067C380.161 120.405 380.837 134.497 379.594 135.739C378.502 136.832 376.79 134.297 375.942 130.33C373.961 121.058 371.003 112.476 369.379 111.288C368.411 110.58 365.626 110 363.192 110C358.869 110 358.782 110.064 359.435 112.75ZM149.793 118.544C150.008 120.046 149.126 121.046 146.474 122.311C144.488 123.258 142.486 123.8 142.025 123.516C141.05 122.913 141.828 119.088 143.309 117.199C144.889 115.185 149.447 116.13 149.793 118.544ZM215.793 118.544C216.008 120.046 215.126 121.046 212.474 122.311C210.488 123.258 208.486 123.8 208.025 123.516C207.05 122.913 207.828 119.088 209.309 117.199C210.889 115.185 215.447 116.13 215.793 118.544Z"/>
</mask>
<path fill-rule="evenodd" clip-rule="evenodd" d="M325.475 1.04C325.095 1.656 324.707 10.111 324.614 19.83C324.414 40.658 322.747 56.897 319.853 66.224C316.602 76.699 315.595 76.126 340.615 78.052C357.463 79.348 358.884 79.06 361.612 73.784C363.921 69.318 362.932 60.755 358.974 50.935C354.229 39.164 347.333 34.51 343.44 40.451C341.267 43.768 342.396 46.721 346.492 48.432C350.738 50.206 352.071 52.734 352.31 59.462C352.468 63.923 352.089 65.27 350.076 67.416C345.488 72.306 338.865 70.071 336.068 62.689C334.604 58.825 334.534 35.35 335.956 25C337.493 13.806 339.453 9.83699 344 8.71099C348.582 7.57499 349.417 6.64799 348.09 4.16799C346.968 2.07199 345.591 1.75099 332.334 0.500994C328.273 0.117994 325.931 0.301995 325.475 1.04ZM213.75 12.9C209.488 13.285 205.527 14.073 204.949 14.651C204.213 15.387 204.212 17.026 204.947 20.102C207.488 30.739 208.904 50.363 207.929 61.431C207.174 70.001 207.24 72.544 208.233 73.206C208.93 73.67 215.95 73.926 223.833 73.775C240.919 73.447 241 73.395 241 62.743C241 53.31 240.142 52 233.965 52C228.428 52 227.883 52.939 230.493 57.986C234.167 65.091 226.224 68.363 220.561 62.077C219.267 60.641 218.489 58.026 218.223 54.213C217.887 49.416 218.209 47.939 220.231 45C222.535 41.651 222.88 41.508 228.236 41.688C234.901 41.912 235.57 40.988 232.958 35.155C230.778 30.285 228.288 29.792 222.021 32.989C218.487 34.792 217.975 34.832 216.561 33.418C214.491 31.348 214.598 29.172 216.96 25.299C218.834 22.224 223.537 19 226.147 19C226.832 19 229.121 20.198 231.234 21.662C235.714 24.767 237.577 23.904 236.544 19.203C235.129 12.758 230.254 11.41 213.75 12.9ZM246.936 14.577C245.914 15.808 245.867 17.072 246.721 20.327C248.043 25.367 247.385 58.207 245.819 65.342C244.449 71.586 245.567 72.725 253.5 73.166C259.027 73.474 259.524 73.328 259.811 71.318C259.982 70.117 259.419 67.777 258.561 66.117C256.114 61.386 256.504 52.688 259.309 49.428C263.829 44.173 268.973 49.735 270.472 61.5C271.82 72.08 273.052 74 278.49 74C285.322 74 286.323 72.446 283.123 66.807C282.091 64.988 280.714 61.25 280.065 58.5C279.415 55.75 277.785 51.822 276.442 49.771C273.142 44.733 273.353 43.043 277.74 39.36C281.142 36.503 281.474 35.782 281.414 31.36C281.306 23.283 279.853 15.574 278.189 14.25C277.099 13.383 272.276 13 262.431 13C250.732 13 248.015 13.277 246.936 14.577ZM187.691 14.7C183.972 15.288 183.476 17.013 185.4 22.66C186.28 25.243 187 29.019 187 31.051V34.746L181.75 35.427C170.984 36.823 171.603 37.031 170.566 31.664C169.932 28.378 169.997 25.493 170.769 22.664C171.75 19.067 171.673 18.321 170.202 17.187C168.417 15.811 160.321 16.375 158.64 17.992C158.162 18.452 158.481 20.974 159.355 23.66C161.411 29.978 163.312 64.719 161.936 70.814C161.4 73.187 161.221 75.549 161.54 76.064C162.408 77.47 171.358 77.19 173.405 75.693C175.092 74.46 175.101 74.081 173.574 68.943C171.828 63.069 172.263 55.663 174.511 53C175.208 52.175 176.095 50.009 176.482 48.186C177.885 41.588 185.477 41.989 188.146 48.802C189.237 51.587 189.45 69.463 188.413 71.142C186.422 74.363 195.632 76.452 199.465 73.649C201.093 72.459 201.183 71.775 200.224 67.899C198.811 62.183 196.823 38.383 196.642 25L196.5 14.5L193.5 14.378C191.85 14.311 189.236 14.456 187.691 14.7ZM45.5 17.929C37.307 19.906 35.144 24.478 36.937 36.032C38.438 45.704 38.342 55.268 36.75 54.796C36.063 54.591 33.813 51.066 31.75 46.962C25.612 34.746 20.901 27.017 18.958 25.978C14.753 23.727 1.44997 25.663 0.28697 28.695C-0.0450299 29.559 1.06997 32.793 2.76297 35.883C5.25297 40.424 6.06297 43.511 6.99597 52C9.22797 72.322 12.041 90.545 13.596 94.752C15.482 99.857 17.994 100.802 24.791 98.963C29.705 97.634 32 96.343 32 94.908C32 94.442 29.4 91.46 26.223 88.281C21.54 83.596 20.115 81.362 18.705 76.5C15.428 65.204 13.014 53.5 13.007 48.872C12.999 43.351 14.876 41.087 17.253 43.754C19.441 46.209 24.454 56.531 26.432 62.653C28.086 67.773 34.802 78.359 37.887 80.708C40.05 82.355 44.187 82.315 46.499 80.625C48.204 79.377 48.272 78.75 47.226 73.875C46.592 70.919 45.768 63.1 45.395 56.5C44.282 36.835 44.32 35.5 45.987 35.5C48.16 35.5 49.477 38.877 54.6 57.596C59.286 74.716 59.304 74.903 57.427 86.645C56.84 90.321 57.011 90.869 58.94 91.481C62.229 92.525 70.802 90.121 72.516 87.674C73.332 86.509 74 84.134 74 82.397C74 78.7 68.538 63.115 62.996 51C60.41 45.347 58.371 38.649 56.909 31C55.699 24.675 54.564 18.938 54.386 18.25C54.037 16.902 50.311 16.768 45.5 17.929ZM137.767 18.566C137.456 18.877 132.871 19.542 127.579 20.042C122.287 20.543 117.086 21.419 116.022 21.988C112.216 24.025 112.181 36 115.981 36C117.005 36 118.713 34.458 119.882 32.476C125.887 22.297 129.819 30.009 133.113 58.431C134.136 67.251 134.068 68.91 132.506 73.254C130.099 79.947 130.906 80.552 140.709 79.409C147.7 78.593 148.533 78.269 148.819 76.252C148.995 75.015 148.261 72.765 147.187 71.252C144.359 67.263 139.229 39.214 139.76 30.641C140.141 24.476 143.502 23.478 148.653 28C153.474 32.233 154.341 31.901 153.777 26.033C153.102 19.004 151.947 18 144.544 18C141.128 18 138.079 18.255 137.767 18.566ZM270.113 22.113C273.65 25.65 272.174 30.528 265.827 36.28C259.17 42.313 257.596 42.134 257.2 35.299C256.564 24.328 264.363 16.363 270.113 22.113ZM378.2 22.2C377.54 22.86 376.994 24.998 376.987 26.95C376.979 28.903 375.592 34.325 373.903 39C364.866 64.017 363.29 72.114 366.551 76.77C368.816 80.003 370.496 80.651 381.454 82.518C395.698 84.944 399.981 83.805 403.706 76.602C404.931 74.234 405.076 71.377 404.495 61.099C404.103 54.17 403.87 43.474 403.977 37.331C404.208 24.172 404.838 24.914 391.441 22.57C380.681 20.688 379.738 20.662 378.2 22.2ZM85.717 25.438C76.072 26.923 74.432 28.284 75.896 33.587C76.586 36.084 76.738 44.302 76.329 56.976C75.795 73.525 75.935 76.974 77.247 79.51C80.858 86.494 83.478 87.187 98.472 85.123C107.634 83.862 113.135 81.486 115.013 77.976C116.615 74.982 116.08 66.807 114 62.5C112.937 60.3 112.048 57.825 112.024 57C112 56.175 110.887 53.152 109.551 50.282C108.215 47.412 105.954 40.679 104.528 35.321C103.102 29.962 101.387 25.23 100.718 24.804C99.137 23.8 95.298 23.962 85.717 25.438ZM418.227 28.173C417.512 28.888 416.993 32.131 416.982 35.95C416.966 41.874 415.934 49.938 413.119 66.147C412.58 69.252 410.982 74.075 409.569 76.863C405.87 84.163 406.123 85.694 411.25 87.032C413.587 87.643 417.719 88.785 420.432 89.571C423.144 90.357 428.146 91 431.547 91C439.26 91 441.712 89.265 445.931 80.822C448.599 75.483 449 73.623 448.996 66.59C448.991 55.935 446.724 42.34 444.092 37.18C441.858 32.8 439.025 30.849 432.5 29.196C424.906 27.272 419.514 26.886 418.227 28.173ZM393.518 32.387C396.102 36.331 396.574 50.118 394.46 59.902C392.376 69.549 389.41 74 385.066 74C381.31 74 379.168 71.307 377.826 64.897C376.857 60.269 377.004 58.101 378.856 49.684C381.191 39.076 382.808 35.189 386.199 32.029C389.083 29.342 391.604 29.465 393.518 32.387ZM95.015 36.021C97.843 39.992 100.654 48.133 101.945 56.089C103.998 68.746 102.937 73.955 97.876 76.051C93.864 77.713 90.904 75.546 87.398 68.382C84.832 63.136 84.609 61.738 84.557 50.564C84.51 40.58 84.813 37.959 86.273 35.72C88.693 32.008 92.245 32.131 95.015 36.021ZM461.729 36.604C461.328 37.005 461 39.239 461 41.567C461 53.782 456.134 76.991 450.902 89.734C449.701 92.659 449.761 93.108 451.537 94.44C454.185 96.426 474.935 101.224 479.138 100.822C482.202 100.529 482.644 100.057 484.125 95.5C485.019 92.75 486.048 88.834 486.411 86.797C486.988 83.57 486.75 82.882 484.559 81.447C483.177 80.541 480.573 79.732 478.773 79.65C475.309 79.491 474.901 80.57 476.505 85.658C476.979 87.163 476.552 88.448 475.092 89.908C472.414 92.586 471.798 92.542 468.077 89.411C465.395 87.155 465 86.179 465 81.812C465 70.524 472.735 63.624 479.824 68.589C483.444 71.125 485.357 69.699 484.719 64.943C483.862 58.553 482.588 57.664 475.355 58.405C469.755 58.978 469.086 58.848 468.522 57.07C467.085 52.54 473.885 46 480.033 46C481.299 46 483.732 47.557 485.657 49.597C489.722 53.908 492 53.565 492 48.642C492 43.395 489.513 41.338 480.5 39.131C470.592 36.706 462.691 35.642 461.729 36.604ZM437.907 43.922C440.303 48.277 440.323 48.522 439.234 60.098C438.083 72.328 436.896 75.906 432.684 79.841C429.617 82.706 427.367 82.38 424.606 78.671C422.753 76.181 422.513 74.561 422.611 65.171C422.725 54.296 424.319 48.022 428.647 41.416C431.229 37.476 434.909 38.472 437.907 43.922ZM83.488 100.02C83.141 100.58 83.4 102.683 84.064 104.693C85.283 108.387 85.177 111.399 83.014 134.5C81.824 147.205 82.507 151.091 86.097 152.051C89.648 153 95 152.021 95 150.421C95 149.678 93.65 146.941 92 144.339C89.11 139.782 89.001 139.185 89.014 128.054C89.029 115.392 89.562 112 91.536 112C93.03 112 95.535 119.24 96.494 126.333C97.317 132.418 99.565 138.862 101.681 141.2C103.264 142.949 108.936 143.756 109.064 142.25C109.099 141.838 109.248 139.475 109.396 137C109.757 130.955 112.745 111.921 113.443 111.223C115.387 109.28 116.921 118.033 117.074 131.935C117.165 140.286 116.799 143.621 115.486 146.388C113.093 151.431 114.001 153 119.314 153C126.068 153 127.442 150.868 126.547 141.778C126.153 137.778 124.939 130.236 123.849 125.019C122.549 118.791 121.977 112.778 122.184 107.516L122.5 99.5L117.803 99.197C114.171 98.963 112.652 99.348 111.108 100.892C109.099 102.901 108.782 104.155 107.306 115.923C106.34 123.623 104.546 124.832 103.013 118.815C99.88 106.509 97.828 100.979 96.044 100.024C93.568 98.698 84.306 98.695 83.488 100.02ZM237.5 109.9C234.773 110.502 234.525 110.89 234.777 114.154C234.93 116.129 234.367 121.686 233.527 126.503C230.901 141.567 231.956 150.618 236.545 152.379C237.435 152.72 242.347 153 247.459 153C258.346 153 259.358 152.368 257.922 146.466C257.391 144.285 256.955 139.489 256.953 135.809C256.949 129.92 256.7 129.04 254.875 128.46C251.691 127.45 244.259 128.883 243.585 130.638C242.721 132.889 243.881 134.173 246.132 133.458C249.169 132.494 251 134.755 251 139.467C251 146.928 245.779 149.272 241.61 143.682C240.003 141.527 239.426 139.051 239.158 133.146C238.718 123.456 240.258 117.295 243.487 115.824C247.359 114.06 249.207 115.418 248.828 119.749C248.547 122.968 248.81 123.544 250.689 123.811C251.892 123.983 253.768 123.232 254.856 122.144C256.663 120.337 256.728 119.747 255.604 115.339C254.446 110.801 254.138 110.471 250.436 109.814C245.715 108.976 241.555 109.003 237.5 109.9ZM266.15 109.737L261.801 110.125L262.454 113.607C263.91 121.368 264.607 135.967 263.881 143.5C263.456 147.9 263.461 151.853 263.89 152.286C264.32 152.718 269.583 152.943 275.586 152.786L286.5 152.5V145.572C286.5 138.731 286.462 138.634 283.524 137.848C279.679 136.82 278.297 138.161 279.8 141.461C281.271 144.69 280.368 147.004 277.643 146.985C271.842 146.943 269.152 139.474 272.563 132.878C273.975 130.148 274.53 129.886 278.313 130.162C281.901 130.424 282.543 130.172 282.797 128.403C282.961 127.268 282.268 125.317 281.257 124.068C279.475 121.868 279.301 121.847 275.603 123.393C273.504 124.269 271.385 124.738 270.894 124.434C269.079 123.313 270.059 118.85 272.646 116.452C275.856 113.477 277.927 113.368 281.273 116C284.623 118.635 285 118.54 285 115.057C285 109.538 281.013 108.412 266.15 109.737ZM293.466 109.765C292.887 110.176 292.445 114.248 292.463 119C292.48 123.675 292.093 132.774 291.602 139.22L290.71 150.939L293.42 151.97C296.631 153.19 298.071 153.242 299.72 152.194C300.633 151.614 300.318 150.191 298.47 146.54C296.378 142.407 296.002 140.272 296.015 132.581C296.033 122.368 297.102 119.273 299.519 122.441C300.334 123.509 301 125.599 301 127.086C301 131.964 304.937 142.896 307.113 144.061C310.578 145.915 311.559 144.518 312.871 135.857C314.743 123.502 315.079 122 315.972 122C317.454 122 318.17 125.393 318.722 135.041C319.164 142.777 318.951 145.194 317.593 147.82C316.672 149.601 316.188 151.496 316.518 152.029C317.367 153.403 323.363 153.237 324.8 151.8C326.564 150.036 326.261 141.874 323.998 130.222C322.598 123.01 322.252 118.833 322.837 116.222C324.04 110.853 323.439 110 318.452 110C313.108 110 312.17 111.37 311.326 120.417C310.295 131.45 308.285 131.858 305.996 121.5C304.211 113.425 303.411 112.07 299.452 110.415C295.609 108.81 294.917 108.735 293.466 109.765ZM334.15 109.737L329.801 110.125L330.454 113.607C331.91 121.368 332.607 135.967 331.881 143.5C331.456 147.9 331.461 151.853 331.89 152.286C332.32 152.718 337.583 152.943 343.586 152.786L354.5 152.5V145.572C354.5 138.731 354.462 138.634 351.524 137.848C347.679 136.82 346.297 138.161 347.8 141.461C349.271 144.69 348.368 147.004 345.643 146.985C339.842 146.943 337.152 139.474 340.563 132.878C341.975 130.148 342.53 129.886 346.313 130.162C349.901 130.424 350.543 130.172 350.797 128.403C350.961 127.268 350.268 125.317 349.257 124.068C347.475 121.868 347.301 121.847 343.603 123.393C341.504 124.269 339.385 124.738 338.894 124.434C337.079 123.313 338.059 118.85 340.646 116.452C343.856 113.477 345.927 113.368 349.273 116C352.623 118.635 353 118.54 353 115.057C353 109.538 349.013 108.412 334.15 109.737ZM398.71 109.762C390.361 110.063 389.872 110.206 388.96 112.605C387.633 116.095 387.757 120 389.195 120C389.853 120 391.659 118.785 393.209 117.3C395.792 114.825 396.162 114.733 397.626 116.198C398.862 117.434 399.343 120.723 399.748 130.71C400.191 141.612 400.003 144.191 398.546 147.262C397.597 149.263 397.112 151.372 397.469 151.95C398.434 153.51 408.951 153.291 409.563 151.697C409.838 150.981 409.386 148.774 408.558 146.794C407.007 143.08 406.126 118.223 407.47 116.049C408.587 114.241 411.283 114.897 414.195 117.687L417 120.374L416.985 116.437C416.976 114.272 416.639 112.006 416.235 111.402C415.25 109.93 409.347 109.378 398.71 109.762ZM131.011 111.487C130.332 112.305 130.061 113.717 130.409 114.623C130.996 116.153 131.174 116.152 132.877 114.611C134.49 113.152 134.863 113.13 135.941 114.429C137.368 116.148 136.06 126.744 133.54 133.887C131.219 140.464 130.387 150.998 132.102 152.084C134.095 153.346 143 153.223 143 151.933C143 151.347 141.795 149.286 140.321 147.355C138.298 144.702 137.625 142.644 137.571 138.942C137.51 134.731 137.943 133.598 140.644 130.896C147.298 124.239 153.991 128.555 153.989 139.5C153.988 142.875 153.334 146.753 152.494 148.364C150.271 152.627 150.55 153 155.965 153C162.877 153 163.443 151.642 161.459 139.8C159.75 129.595 155.331 113.223 153.754 111.25C152.215 109.324 132.636 109.529 131.011 111.487ZM166.435 112.75C166.803 114.262 167.351 121.575 167.653 129C168.089 139.698 167.882 143.42 166.656 146.933C165.804 149.371 165.335 151.733 165.613 152.183C166.289 153.277 172.139 153.198 173.921 152.07C175.123 151.309 175.056 150.735 173.492 148.347C172.243 146.441 171.497 143.024 171.197 137.834C170.702 129.292 171.702 120.284 172.996 121.629C173.456 122.108 175.263 127.44 177.012 133.477C181.881 150.29 183.64 153 189.683 153H192.203L191.482 145.825C190.407 135.12 190.622 122.063 191.954 117.145C192.603 114.75 192.893 112.163 192.598 111.395C192.022 109.893 185.477 109.419 184.613 110.817C184.335 111.267 184.802 113.629 185.651 116.067C187.161 120.405 187.837 134.497 186.594 135.739C185.502 136.832 183.79 134.297 182.942 130.33C180.961 121.058 178.003 112.476 176.379 111.288C175.411 110.58 172.626 110 170.192 110C165.869 110 165.782 110.064 166.435 112.75ZM197.011 111.487C196.332 112.305 196.061 113.717 196.409 114.623C196.996 116.153 197.174 116.152 198.877 114.611C200.49 113.152 200.863 113.13 201.941 114.429C203.368 116.148 202.06 126.744 199.54 133.887C197.219 140.464 196.387 150.998 198.102 152.084C200.095 153.346 209 153.223 209 151.933C209 151.347 207.795 149.286 206.321 147.355C204.298 144.702 203.625 142.644 203.571 138.942C203.51 134.731 203.943 133.598 206.644 130.896C213.298 124.239 219.991 128.555 219.989 139.5C219.988 142.875 219.334 146.753 218.494 148.364C216.271 152.627 216.55 153 221.965 153C228.877 153 229.443 151.642 227.459 139.8C225.75 129.595 221.331 113.223 219.754 111.25C218.215 109.324 198.636 109.529 197.011 111.487ZM359.435 112.75C359.803 114.262 360.351 121.575 360.653 129C361.089 139.698 360.882 143.42 359.656 146.933C358.804 149.371 358.335 151.733 358.613 152.183C359.289 153.277 365.139 153.198 366.921 152.07C368.123 151.309 368.056 150.735 366.492 148.347C365.243 146.441 364.497 143.024 364.197 137.834C363.702 129.292 364.702 120.284 365.996 121.629C366.456 122.108 368.263 127.44 370.012 133.477C374.881 150.29 376.64 153 382.683 153H385.203L384.482 145.825C383.407 135.12 383.622 122.063 384.954 117.145C385.603 114.75 385.893 112.163 385.598 111.395C385.022 109.893 378.477 109.419 377.613 110.817C377.335 111.267 377.802 113.629 378.651 116.067C380.161 120.405 380.837 134.497 379.594 135.739C378.502 136.832 376.79 134.297 375.942 130.33C373.961 121.058 371.003 112.476 369.379 111.288C368.411 110.58 365.626 110 363.192 110C358.869 110 358.782 110.064 359.435 112.75ZM149.793 118.544C150.008 120.046 149.126 121.046 146.474 122.311C144.488 123.258 142.486 123.8 142.025 123.516C141.05 122.913 141.828 119.088 143.309 117.199C144.889 115.185 149.447 116.13 149.793 118.544ZM215.793 118.544C216.008 120.046 215.126 121.046 212.474 122.311C210.488 123.258 208.486 123.8 208.025 123.516C207.05 122.913 207.828 119.088 209.309 117.199C210.889 115.185 215.447 116.13 215.793 118.544Z" fill="white" stroke="black" stroke-width="4" mask="url(#path-1-inside-1_2_7)"/>
</svg>
